# xmcd
#
# Track frame offsets:
#	150
#	1548
#	15366
#	27423
#	42899
#	58920
#	74350
#	88743
#	105017
#	108223
#	123004
#	138852
#	153722
#	168750
#	183975
#	186516
#	203213
#	216241
#	231866
#	246654
#	247615
#	265687
#	282137
#	300957
#
# Disc length: 4320 seconds
#
# Revision: 1
# Processed by: cddbd v1.5.2PL0 Copyright (c) Steve Scherf et al.
# Submitted via: audiograbber 1.83.01
#
DISCID=3410de18
DTITLE=Various Artist - Vollgas im Schnee 2005
DYEAR=2005
DGENRE=Techno
TTITLE0=DJ Vollgas - Mit Vollgas durch den Winter
TTITLE1=Prezioso and Marvin - Right here waiting
TTITLE2=Gigi d´ Agostino and Datura - Summer of energy
TTITLE3=Cappella - U got to let the Music 2005
TTITLE4=Haiducii - Mne S Toboy Horosho
TTITLE5=Klubbhoppers - Electronic Life
TTITLE6=Di Fumetti feat. D-JMC - Di Fumetti
TTITLE7=Alex Cole - Life is for living
TTITLE8=DJ Vollgas - Vollgas Woerthersee Trophy 2005
TTITLE9=Monkey Circus - Obsession
TTITLE10=Verona - Life is fun
TTITLE11=Astrada - Subway #9
TTITLE12=Rimini Project - A day in the sun
TTITLE13=Master Guys - Rocking
TTITLE14=DJ Vollgas - Familie Schnee
TTITLE15=Warp Brothers - Smells like teen spirit
TTITLE16=Fabio Ferrara - Azzurro
TTITLE17=Jim-X - Givin to me
TTITLE18=Monsieur Louis - La soupe aux choux
TTITLE19=DJ Vollgas - Paarungszeit
TTITLE20=DJ Ostkurve - Griechischer Wein 2005
TTITLE21=Tim Toupet - Eine neue Leber ist wie ein neues Leben
TTITLE22=Antonia - Lebt denn der alte Holzmichl noch
TTITLE23=Vollgas 2004 - DVD Trailer
EXTD=
EXTT0=
EXTT1=
EXTT2=
EXTT3=
EXTT4=
EXTT5=
EXTT6=
EXTT7=
EXTT8=
EXTT9=
EXTT10=
EXTT11=
EXTT12=
EXTT13=
EXTT14=
EXTT15=
EXTT16=
EXTT17=
EXTT18=
EXTT19=
EXTT20=
EXTT21=
EXTT22=
EXTT23=
PLAYORDER=
